Coordinates
version=1
nRows=7
nColumns=40
inDegrees=yes

Units are S.I. units (second, meters, Newtons, ...)
Angles are in degrees.

endheader
time	pelvis_tilt	pelvis_list	pelvis_rotation	pelvis_tx	pelvis_ty	pelvis_tz	hip_flexion_r	hip_adduction_r	hip_rotation_r	knee_angle_r	knee_angle_r_beta	ankle_angle_r	subtalar_angle_r	mtp_angle_r	hip_flexion_l	hip_adduction_l	hip_rotation_l	knee_angle_l	knee_angle_l_beta	ankle_angle_l	subtalar_angle_l	mtp_angle_l	lumbar_extension	lumbar_bending	lumbar_rotation	arm_flex_r	arm_add_r	arm_rot_r	elbow_flex_r	pro_sup_r	wrist_flex_r	wrist_dev_r	arm_flex_l	arm_add_l	arm_rot_l	elbow_flex_l	pro_sup_l	wrist_flex_l	wrist_dev_l
     32.19342857	     -6.31215686	     -5.62440679	      3.07637973	      0.76685705	      0.91811495	      0.48263932	      3.22135311	      4.29419540	    -16.14209344	     12.54217915	     12.54217915	     17.47479506	      2.98881676	     -2.10488376	     31.11183562	     -6.80159025	     -3.64035316	     18.50258682	     18.50258682	      1.49663496	    -10.53076372	      3.89526512	     -9.08087455	      6.62832816	      3.18176198	     33.52282096	    -13.43431764	     -6.05873182	     86.01290722	     44.72326172	      0.00000000	      0.00000000	    -10.96625645	     -7.59145640	      2.35458646	     31.66873555	     45.51398559	      0.00000000	      0.00000000
     32.20685714	     -6.18208929	     -5.62834140	      2.97364981	      0.76877107	      0.91730871	      0.48088721	      2.53351145	      4.19814947	    -15.92230285	     12.66902079	     12.66902079	     17.92375907	      2.97064257	     -2.20432200	     30.72485393	     -6.81145705	     -3.72864428	     19.21191247	     19.21191247	      1.05529749	    -10.82380633	      3.90004332	     -8.82648720	      6.46292619	      3.03941540	     32.85531075	    -13.16109237	     -5.90035433	     85.86777391	     44.72104090	      0.00000000	      0.00000000	    -10.56507768	     -7.62062070	      2.34127414	     31.78836250	     45.52228700	      0.00000000	      0.00000000
     32.22028571	     -5.92110766	     -5.66143729	      2.87875232	      0.77083811	      0.91669340	      0.47900565	      1.76730973	      4.11675460	    -15.64154188	     12.93112953	     12.93112953	     18.27984656	      2.78443679	     -1.95254994	     30.57563037	     -6.80464388	     -3.35863304	     20.64683047	     20.64683047	      0.94407809	    -11.91052785	      3.33555241	     -8.70948724	      6.24255259	      3.17100046	     31.74631053	    -13.03073750	     -5.66801688	     85.59802275	     44.72504592	      0.00000000	      0.00000000	     -9.98928807	     -7.69641613	      2.20770295	     31.81260515	     45.55143702	      0.00000000	      0.00000000
     32.23371429	     -5.70379962	     -5.54407325	      2.80767500	      0.77286156	      0.91663495	      0.47680772	      1.04536834	      3.82831054	    -15.43046159	     13.18040545	     13.18040545	     18.51682474	      2.71016331	     -1.88603339	     30.14809653	     -6.62488867	     -3.25860717	     21.48728353	     21.48728353	      1.06669278	    -12.45982733	      3.09938605	     -8.57814892	      5.91382486	      3.05033337	     30.56942364	    -12.75215071	     -5.43061511	     85.26344892	     44.72600025	      0.00000000	      0.00000000	     -9.43376428	     -7.79554113	      2.12546421	     31.91215818	     45.57196387	      0.00000000	      0.00000000
     32.24714286	     -5.52177766	     -5.44627180	      2.77101015	      0.77467119	      0.91687302	      0.47431160	      0.43205301	      3.51982786	    -15.27719774	     13.51638145	     13.51638145	     18.63742485	      2.63299211	     -1.79817035	     29.77716818	     -6.40504335	     -3.04322611	     22.30840810	     22.30840810	      1.39813549	    -13.05877967	      2.87184219	     -8.45784228	      5.67263548	      2.97627967	     29.32375509	    -12.59299307	     -5.20025254	     84.81516478	     44.73055664	      0.00000000	      0.00000000	     -8.76702560	     -7.85472219	      2.01854392	     32.05966561	     45.59759168	      0.00000000	      0.00000000
     32.26057143	     -5.45896755	     -5.36208242	      2.71714952	      0.77625610	      0.91725990	      0.47157350	      0.14270310	      3.13255101	    -15.16188255	     14.20262568	     14.20262568	     18.78434755	      2.53080262	     -1.54610710	     29.52531116	     -6.11965809	     -2.63117215	     23.08571685	     23.08571685	      1.86790082	    -13.95710990	      2.91468768	     -8.21721816	      5.46199425	      3.31982261	     27.87195792	    -13.00633411	     -4.98829673	     84.05197884	     44.75071479	      0.00000000	      0.00000000	     -7.77612624	     -7.81287588	      1.65833160	     32.18247053	     45.66392870	      0.00000000	      0.00000000
     32.27400000	     -5.38228949	     -5.20503085	      2.66730060	      0.77774247	      0.91806858	      0.46863600	     -0.07729531	      2.61530391	    -15.14054042	     15.03644197	     15.03644197	     18.89563368	      2.54651535	     -1.20610999	     29.11627358	     -5.75057593	     -2.35775391	     23.62902396	     23.62902396	      2.67486706	    -14.57769646	      3.44297570	     -8.03562848	      5.21408161	      3.48971353	     26.23031603	    -13.17377391	     -4.69767590	     83.36053941	     44.77248493	      0.00000000	      0.00000000	     -6.77280099	     -7.73499134	      0.90569747	     32.15419692	     45.78306986	      0.00000000	      0.00000000
